<svg id="Layer_1" data-name="Layer 1" xmlns="http://www.w3.org/2000/svg" viewBox="0 0 71.95 71.61"><defs><style>.cls-1{fill:#fff;}</style></defs><path class="cls-1" d="M63.12,71.77c-1.54.06-3.09,0-4.62,0H10.72a20.32,20.32,0,0,1-2.92-.11A9.28,9.28,0,0,1,.07,63.06C0,61.64,0,60.2,0,58.78V11.13A21.37,21.37,0,0,1,.15,8,9.35,9.35,0,0,1,8.92.23c1.2-.08,2.45,0,3.66,0H61.07a22.26,22.26,0,0,1,3.16.11,9.43,9.43,0,0,1,7.7,8.54c.09,1.31,0,2.66,0,4V60.93a23.25,23.25,0,0,1-.08,2.89,9.29,9.29,0,0,1-8.76,7.95ZM25.43,17.47c-2.44.16-4.72,2.37-6.24,4.11-2.43,2.8-1.58,6.25-.26,9.32,2.9,6.72,10.81,15.24,17,19.4,5.33,3.57,10.86,6.45,15.89,1.28,1.4-1.51,2.71-3,2.63-5.18-.09-2.44-2.8-3.07-4.75-4.06-.85-.42-2.86-1.68-3.8-1.66s-4.19,4-5.37,4.11c-1,.13-5.82-5-6.69-5.84a65.38,65.38,0,0,1-6.13-6.45c-1.64-2.2,2.53-3.71,3.39-6.07a30,30,0,0,0-1.46-4.38c-.9-2.56-.86-4.7-4.22-4.58Z" transform="translate(-0.02 -0.19)"/></svg>