<svg id="Layer_1" data-name="Layer 1" xmlns="http://www.w3.org/2000/svg" viewBox="0 0 80.03 59.89"><path d="M10.25,7.44a2.38,2.38,0,0,1,1.36.43L40,27.78,68.42,7.87a2.38,2.38,0,0,1,1.36-.43,2.36,2.36,0,0,1,1.35,4.3L41.35,32.61a2.33,2.33,0,0,1-2.67,0L8.9,11.74a2.36,2.36,0,0,1-.58-3.29,2.33,2.33,0,0,1,1.92-1h0Zm2.24,29.34h9.6a2.37,2.37,0,0,1,0,4.73h-9.6a2.36,2.36,0,0,1,0-4.72h0Zm0,8H31.23a2.37,2.37,0,0,1,0,4.73H12.49a2.36,2.36,0,0,1,0-4.72ZM73.81,0H6.22A6.31,6.31,0,0,0,0,6.3V53.58a6.3,6.3,0,0,0,6.22,6.3H73.81A6.32,6.32,0,0,0,80,53.58V6.3A6.31,6.31,0,0,0,73.81,0Z"/></svg>